<svg width="200" height="200" viewBox="0 0 200 200" fill="none" xmlns="http://www.w3.org/2000/svg">
<path d="M200 100C200 155.228 155.228 200 100 200C44.7715 200 0 155.228 0 100C0 44.7715 44.7715 0 100 0C155.228 0 200 44.7715 200 100Z" fill="#3CB371"/>
<path d="M157.304 72.961C151.216 60.0754 140.956 49.6184 128.184 43.2808C115.412 36.9431 100.875 35.0954 86.922 38.0362C72.9691 40.9771 60.4167 48.5346 51.2942 59.4869C42.1718 70.4393 37.0125 84.1461 36.6507 98.3912C36.2888 112.636 40.7455 126.587 49.3002 137.988C57.8548 149.389 70.0074 157.573 83.7929 161.217C97.5785 164.862 112.191 163.753 125.268 158.071C138.345 152.389 149.123 142.466 155.857 129.906L142.09 122.534C137.015 131.999 128.894 139.476 119.04 143.757C109.186 148.039 98.1754 148.874 87.7877 146.128C77.4001 143.382 68.2429 137.215 61.7968 128.624C55.3507 120.033 51.9925 109.521 52.2652 98.7873C52.5378 88.0533 56.4254 77.725 63.2994 69.4722C70.1733 61.2195 79.6318 55.5247 90.1455 53.3087C100.659 51.0927 111.614 52.485 121.237 57.2606C130.861 62.0361 138.592 69.9156 143.18 79.6252L157.304 72.961Z" fill="white"/>
<path d="M93.042 122.248L99.8796 115.402L106.717 122.248V126.649H93.042V122.248Z" fill="white"/>
<path d="M99.8778 70.9045L149.606 126.559L142.09 122.534L141.882 122.917L141.66 123.318L141.464 123.663L141.249 124.036L141.032 124.404L140.794 124.799L140.556 125.186L140.359 125.5L140.201 125.748L140 126.059L139.829 126.319L139.67 126.559H130.861L112.271 126.467L99.8778 97.0659L87.4847 126.345L68.8949 126.253L60.0975 126.207L59.5863 125.413L59.0906 124.608L58.6089 123.79L58.1402 122.957L57.6691 122.078L57.2189 121.193L56.7857 120.297L56.3692 119.387L62.6983 112.347L75.0915 98.5329L99.8778 70.9045Z" fill="white"/>
<path d="M99.1455 64.7919H100.611V71.8823H99.1455V64.7919Z" fill="white"/>
<path d="M100.61 67.1159L107.936 66.0156V69.1941H100.61V67.1159Z" fill="white"/>
</svg>
